<svg xmlns="http://www.w3.org/2000/svg"  viewBox="0 0 48 48" width="96px" height="96px"><path fill="#8a4581" d="M14.386,17.735c-0.773,0.346-1.519,0.794-2.065,1.441c-0.637,0.756-0.956,1.727-1.173,2.691 c-0.308,1.367-0.435,2.825,0.022,4.149c0.839,2.428,3.446,3.83,5.98,4.247c2.534,0.417,5.13,0.085,7.693,0.255 c-0.048,0-0.303-9.221-0.33-10.045c-0.03-0.912,0.359-3.313-0.532-3.806c-0.977-0.539-3.453-0.134-4.548-0.065 C17.704,16.712,15.975,17.024,14.386,17.735z"/><path fill="#4b7bb2" d="M25.207,21.433c-0.24,0.587-0.408,1.213-0.396,1.847c0.015,0.76,0.286,1.492,0.611,2.179 c0.87,1.838,2.111,3.703,3.992,4.473c1.692,0.692,3.964,0.792,5.836,0.076c0.725-0.278,1.241-0.936,1.753-1.52 c1.13-1.289,2.031-2.902,1.975-4.615c-0.026-0.815-0.267-1.608-0.546-2.374c-0.362-0.994-0.8-1.978-1.473-2.794 c-0.874-1.06-1.97-1.557-3.32-1.64c-1.161-0.071-2.152-0.429-3.305-0.112C28.075,17.575,26.098,19.256,25.207,21.433z"/><path fill="#71c598" d="M25,30.788c0.182,2.464,0.325,3.152-0.708,8.33c-0.228,1.143-0.297,2.347-0.876,3.358 c-0.815,1.423-2.396,2.311-4.022,2.524c-1.626,0.214-3.287-0.186-4.777-0.872c-0.657-0.303-1.301-0.671-1.787-1.208 c-0.681-0.751-0.992-1.761-1.234-2.745c-0.462-1.877-0.728-3.938,0.108-5.681c0.795-1.657,2.482-2.744,4.25-3.246 c1.768-0.501,3.634-0.493,5.472-0.482C22.617,30.773,23.809,30.781,25,30.788"/><path fill="none" stroke="#010101" stroke-linecap="round" stroke-linejoin="round" stroke-miterlimit="10" d="M14.386,17.735 c-0.773,0.346-1.519,0.794-2.065,1.441c-0.637,0.756-0.956,1.727-1.173,2.691c-0.308,1.367-0.435,2.825,0.022,4.149 c0.839,2.428,3.446,3.83,5.98,4.247c2.534,0.417,5.13,0.085,7.693,0.255c-0.048,0-0.303-9.221-0.33-10.045 c-0.03-0.912,0.359-3.313-0.532-3.806c-0.977-0.539-3.453-0.134-4.548-0.065C17.704,16.712,15.975,17.024,14.386,17.735z"/><path fill="#ed488b" d="M35.779,4.375c-1.814-0.99-3.672-1.687-5.739-1.723L25.072,2.86c0.486,4.715,0.261,9.589-0.26,14.3 c3.697-0.917,7.933,0.329,11.199-1.632c1.93-1.159,3.164-3.393,3.117-5.644C39.081,7.634,37.756,5.453,35.779,4.375z"/><path fill="none" stroke="#010101" stroke-linecap="round" stroke-linejoin="round" stroke-miterlimit="10" d="M25.207,21.433 c-0.24,0.587-0.408,1.213-0.396,1.847c0.015,0.76,0.286,1.492,0.611,2.179c0.87,1.838,2.111,3.703,3.992,4.473 c1.692,0.692,3.964,0.792,5.836,0.076c0.725-0.278,1.241-0.936,1.753-1.52c1.13-1.289,2.031-2.902,1.975-4.615 c-0.026-0.815-0.267-1.608-0.546-2.374c-0.362-0.994-0.8-1.978-1.473-2.794c-0.874-1.06-1.97-1.557-3.32-1.64 c-1.161-0.071-2.152-0.429-3.305-0.112C28.075,17.575,26.098,19.256,25.207,21.433z"/><path fill="#ed2224" d="M23.562,3.187c-1.898-0.032-3.814-0.063-5.676,0.303c-1.863,0.366-3.695,1.166-4.979,2.564 c-1.284,1.398-1.71,4.128-1.126,5.935c0.494,1.527,0.897,2.601,2.219,3.512c0.86,0.593,2.064,0.894,3,1 c1.251,0.142,2.889,0.264,4.148,0.31c1.424,0.052,2.847,0.105,4.271,0.157l0.472-13.741C23.832,3.191,25.621,3.222,23.562,3.187z"/><path fill="none" stroke="#010101" stroke-linecap="round" stroke-linejoin="round" stroke-miterlimit="10" d="M25,30.788 c0.182,2.464,0.325,3.152-0.708,8.33c-0.228,1.143-0.297,2.347-0.876,3.358c-0.815,1.423-2.396,2.311-4.022,2.524 c-1.626,0.214-3.287-0.186-4.777-0.872c-0.657-0.303-1.301-0.671-1.787-1.208c-0.681-0.751-0.992-1.761-1.234-2.745 c-0.462-1.877-0.728-3.938,0.108-5.681c0.795-1.657,2.482-2.744,4.25-3.246c1.768-0.501,3.634-0.493,5.472-0.482 C22.617,30.773,23.809,30.781,25,30.788"/><path fill="none" stroke="#010101" stroke-linecap="round" stroke-linejoin="round" stroke-miterlimit="10" d="M25,3.5 c0.486,4.715,0.333,8.949-0.188,13.66c3.697-0.917,7.933,0.329,11.199-1.632c1.93-1.159,3.164-3.393,3.117-5.644 c-0.047-2.251-1.372-4.432-3.349-5.51c-1.814-0.99-3.672-1.688-5.739-1.723c-2.059-0.035-4.15,0.156-6.366,0.208 c-1.898,0.044-3.925,0.263-5.788,0.63s-3.695,1.166-4.979,2.564s-1.71,4.128-1.126,5.935c0.494,1.527,0.897,2.601,2.219,3.512 c0.86,0.593,2.064,0.894,3,1c1.251,0.142,2.889,0.264,4.148,0.31c1.424,0.052,2.847,0.105,4.271,0.157"/></svg>