<svg xmlns="http://www.w3.org/2000/svg" xmlns:xlink="http://www.w3.org/1999/xlink" width="500" zoomAndPan="magnify" viewBox="0 0 375 374.999991" height="500" preserveAspectRatio="xMidYMid meet" version="1.0"><defs><g/><clipPath id="8c887bedb5"><path d="M 287.066406 188.25 L 291.136719 188.25 L 291.136719 192.320312 L 287.066406 192.320312 Z M 287.066406 188.25 " clip-rule="nonzero"/></clipPath><clipPath id="ccc5b9d2e8"><path d="M 289.101562 188.25 C 287.976562 188.25 287.066406 189.160156 287.066406 190.285156 C 287.066406 191.40625 287.976562 192.320312 289.101562 192.320312 C 290.226562 192.320312 291.136719 191.40625 291.136719 190.285156 C 291.136719 189.160156 290.226562 188.25 289.101562 188.25 Z M 289.101562 188.25 " clip-rule="nonzero"/></clipPath></defs><g fill="#000000" fill-opacity="1"><g transform="translate(52.455005, 237.849667)"><g><path d="M 125.703125 -8.578125 C 125.753906 -8.566406 125.796875 -8.519531 125.828125 -8.4375 C 125.859375 -8.351562 125.878906 -8.285156 125.890625 -8.234375 C 125.867188 -8.148438 125.835938 -8.078125 125.796875 -8.015625 C 125.753906 -7.960938 125.707031 -7.921875 125.65625 -7.890625 C 125.445312 -7.753906 125.226562 -7.675781 125 -7.65625 C 124.769531 -7.625 124.539062 -7.609375 124.3125 -7.609375 C 124.207031 -7.609375 124.128906 -7.601562 124.078125 -7.59375 C 122.984375 -7.519531 121.890625 -7.460938 120.796875 -7.421875 C 118.253906 -7.273438 115.738281 -7.113281 113.25 -6.9375 C 108.382812 -6.59375 103.523438 -6.207031 98.671875 -5.78125 C 91.878906 -5.15625 85.085938 -4.421875 78.296875 -3.578125 C 73.429688 -2.960938 68.570312 -2.304688 63.71875 -1.609375 C 63.175781 -1.546875 62.640625 -1.46875 62.109375 -1.375 C 61.554688 -1.289062 61.007812 -1.210938 60.46875 -1.140625 C 57.175781 -0.691406 53.890625 -0.203125 50.609375 0.328125 L 50.53125 0.34375 C 48.59375 0.65625 46.679688 1.007812 44.796875 1.40625 C 44.066406 1.539062 43.363281 1.664062 42.6875 1.78125 C 41.8125 1.9375 40.960938 2.242188 40.140625 2.703125 C 33.847656 6.128906 27.382812 8.941406 20.75 11.140625 C 18.832031 11.785156 16.910156 12.375 14.984375 12.90625 C 13.066406 13.445312 11.125 13.878906 9.15625 14.203125 C 8.519531 14.304688 7.882812 14.394531 7.25 14.46875 C 6.289062 14.625 5.34375 14.648438 4.40625 14.546875 C 4.039062 14.523438 3.6875 14.46875 3.34375 14.375 C 3.050781 14.3125 2.789062 14.195312 2.5625 14.03125 C 2.34375 13.863281 2.21875 13.617188 2.1875 13.296875 C 2.195312 12.953125 2.296875 12.644531 2.484375 12.375 C 2.671875 12.113281 2.898438 11.882812 3.171875 11.6875 C 3.984375 11.03125 4.863281 10.535156 5.8125 10.203125 C 6.269531 9.992188 6.742188 9.796875 7.234375 9.609375 C 8.828125 8.972656 10.441406 8.390625 12.078125 7.859375 C 18.648438 5.765625 25.242188 4.03125 31.859375 2.65625 C 32.265625 2.550781 32.648438 2.453125 33.015625 2.359375 C 35.066406 1.921875 37.117188 1.5 39.171875 1.09375 C 39.898438 0.957031 40.613281 0.695312 41.3125 0.3125 C 43.695312 -1.050781 46.03125 -2.515625 48.3125 -4.078125 C 50.601562 -5.648438 52.804688 -7.363281 54.921875 -9.21875 C 56.679688 -10.726562 58.257812 -12.4375 59.65625 -14.34375 C 60.445312 -15.375 61.050781 -16.503906 61.46875 -17.734375 C 61.976562 -19.492188 61.609375 -20.878906 60.359375 -21.890625 C 59.453125 -22.546875 58.441406 -23.015625 57.328125 -23.296875 C 55.859375 -23.703125 54.347656 -23.972656 52.796875 -24.109375 C 51.253906 -24.253906 49.691406 -24.335938 48.109375 -24.359375 C 43.671875 -24.378906 39.191406 -24.101562 34.671875 -23.53125 C 34.503906 -23.5 34.347656 -23.472656 34.203125 -23.453125 C 34.023438 -23.421875 33.84375 -23.390625 33.65625 -23.359375 C 33.289062 -23.234375 33.039062 -22.957031 32.90625 -22.53125 C 32.832031 -22.34375 32.765625 -22.15625 32.703125 -21.96875 C 32.578125 -21.5625 32.4375 -21.148438 32.28125 -20.734375 C 31.207031 -17.242188 30.140625 -13.765625 29.078125 -10.296875 C 28.210938 -7.367188 27.316406 -4.445312 26.390625 -1.53125 C 26.390625 -1.40625 26.367188 -1.3125 26.328125 -1.25 C 26.234375 -0.882812 26.109375 -0.535156 25.953125 -0.203125 C 25.765625 0.078125 25.515625 0.21875 25.203125 0.21875 C 25.023438 0.28125 24.84375 0.300781 24.65625 0.28125 C 24.3125 0.175781 24.171875 -0.046875 24.234375 -0.390625 C 24.398438 -1.148438 24.585938 -1.898438 24.796875 -2.640625 C 26.117188 -7.253906 27.441406 -11.835938 28.765625 -16.390625 C 29.203125 -17.867188 29.632812 -19.332031 30.0625 -20.78125 C 30.082031 -20.90625 30.117188 -21.023438 30.171875 -21.140625 C 30.253906 -21.460938 30.335938 -21.796875 30.421875 -22.140625 C 30.523438 -22.617188 30.347656 -22.832031 29.890625 -22.78125 C 29.648438 -22.757812 29.414062 -22.734375 29.1875 -22.703125 C 28.894531 -22.671875 28.59375 -22.648438 28.28125 -22.640625 C 28.238281 -22.628906 28.175781 -22.617188 28.09375 -22.609375 C 27.738281 -22.578125 27.398438 -22.582031 27.078125 -22.625 C 26.765625 -22.664062 26.546875 -22.875 26.421875 -23.25 C 26.347656 -23.675781 26.441406 -24.015625 26.703125 -24.265625 C 26.972656 -24.515625 27.273438 -24.738281 27.609375 -24.9375 C 27.734375 -25 27.847656 -25.046875 27.953125 -25.078125 C 28.847656 -25.648438 29.765625 -26.171875 30.703125 -26.640625 C 30.796875 -26.703125 30.90625 -26.753906 31.03125 -26.796875 C 31.757812 -27.148438 32.257812 -27.726562 32.53125 -28.53125 C 33.6875 -32.039062 34.863281 -35.539062 36.0625 -39.03125 C 36.46875 -40.226562 36.882812 -41.453125 37.3125 -42.703125 C 37.351562 -42.878906 37.398438 -43.050781 37.453125 -43.21875 C 37.546875 -43.5625 37.671875 -43.910156 37.828125 -44.265625 C 38.023438 -44.679688 38.328125 -44.878906 38.734375 -44.859375 C 38.921875 -44.910156 39.109375 -44.929688 39.296875 -44.921875 C 39.691406 -44.816406 39.859375 -44.535156 39.796875 -44.078125 C 39.796875 -44.054688 39.78125 -44.046875 39.75 -44.046875 C 39.601562 -43.140625 39.394531 -42.242188 39.125 -41.359375 C 38.445312 -39.253906 37.75 -37.128906 37.03125 -34.984375 C 36.8125 -34.265625 36.570312 -33.550781 36.3125 -32.84375 C 36.175781 -32.476562 36.050781 -32.117188 35.9375 -31.765625 C 35.726562 -31.160156 35.523438 -30.539062 35.328125 -29.90625 C 35.328125 -29.90625 35.320312 -29.882812 35.3125 -29.84375 C 35.269531 -29.738281 35.242188 -29.632812 35.234375 -29.53125 C 35.222656 -29.425781 35.285156 -29.363281 35.421875 -29.34375 C 35.515625 -29.3125 35.601562 -29.296875 35.6875 -29.296875 L 35.75 -29.328125 C 35.894531 -29.398438 36.050781 -29.472656 36.21875 -29.546875 C 36.269531 -29.566406 36.316406 -29.597656 36.359375 -29.640625 C 41.640625 -32.296875 46.910156 -35.015625 52.171875 -37.796875 C 57.441406 -40.585938 62.644531 -43.515625 67.78125 -46.578125 C 67.894531 -46.640625 68.003906 -46.691406 68.109375 -46.734375 C 69.679688 -47.703125 71.242188 -48.671875 72.796875 -49.640625 C 74.347656 -50.609375 75.867188 -51.628906 77.359375 -52.703125 C 78.472656 -53.484375 79.507812 -54.367188 80.46875 -55.359375 C 82.457031 -57.597656 82.285156 -59.28125 79.953125 -60.40625 C 78.847656 -60.914062 77.6875 -61.25 76.46875 -61.40625 C 75.25 -61.570312 74.019531 -61.628906 72.78125 -61.578125 C 69.8125 -61.554688 66.84375 -61.304688 63.875 -60.828125 L 63.8125 -60.8125 C 60.9375 -60.332031 58.0625 -59.722656 55.1875 -58.984375 C 48.789062 -57.367188 42.492188 -55.21875 36.296875 -52.53125 C 30.566406 -50.101562 25.046875 -47.148438 19.734375 -43.671875 C 18.347656 -42.765625 17.015625 -41.773438 15.734375 -40.703125 C 15.359375 -40.378906 14.988281 -40.082031 14.625 -39.8125 C 14.40625 -39.6875 14.1875 -39.625 13.96875 -39.625 C 13.695312 -39.539062 13.457031 -39.582031 13.25 -39.75 C 13.09375 -39.914062 13.0625 -40.082031 13.15625 -40.25 C 13.257812 -40.414062 13.382812 -40.566406 13.53125 -40.703125 C 14.625 -41.765625 15.78125 -42.695312 17 -43.5 C 17.019531 -43.5 17.035156 -43.507812 17.046875 -43.53125 C 22.035156 -46.957031 27.234375 -49.894531 32.640625 -52.34375 C 40.421875 -55.90625 48.378906 -58.628906 56.515625 -60.515625 C 59.023438 -61.109375 61.535156 -61.613281 64.046875 -62.03125 C 66.796875 -62.507812 69.546875 -62.8125 72.296875 -62.9375 C 74.867188 -63.09375 77.375 -62.898438 79.8125 -62.359375 C 80.957031 -62.117188 81.992188 -61.660156 82.921875 -60.984375 C 83.691406 -60.367188 84.109375 -59.625 84.171875 -58.75 C 84.234375 -57.875 83.953125 -56.953125 83.328125 -55.984375 C 82.515625 -54.867188 81.5625 -53.890625 80.46875 -53.046875 C 79.164062 -52.003906 77.8125 -51.03125 76.40625 -50.125 C 75.007812 -49.226562 73.601562 -48.347656 72.1875 -47.484375 C 72.132812 -47.453125 72.070312 -47.410156 72 -47.359375 C 67.039062 -44.316406 62.003906 -41.414062 56.890625 -38.65625 C 51.785156 -35.90625 46.648438 -33.226562 41.484375 -30.625 C 40.617188 -30.164062 39.753906 -29.707031 38.890625 -29.25 C 37.691406 -28.613281 36.492188 -27.988281 35.296875 -27.375 C 34.753906 -27.164062 34.351562 -26.785156 34.09375 -26.234375 C 33.894531 -25.734375 33.832031 -25.359375 33.90625 -25.109375 C 33.976562 -24.859375 34.289062 -24.769531 34.84375 -24.84375 C 36.300781 -25.019531 37.757812 -25.179688 39.21875 -25.328125 C 39.3125 -25.335938 39.398438 -25.351562 39.484375 -25.375 C 42.265625 -25.632812 45.023438 -25.773438 47.765625 -25.796875 C 50.503906 -25.828125 53.207031 -25.65625 55.875 -25.28125 C 57.03125 -25.101562 58.15625 -24.867188 59.25 -24.578125 C 59.96875 -24.378906 60.675781 -24.109375 61.375 -23.765625 C 64.320312 -22.148438 64.925781 -19.613281 63.1875 -16.15625 C 62.613281 -15.007812 61.914062 -13.945312 61.09375 -12.96875 C 59.050781 -10.539062 56.796875 -8.367188 54.328125 -6.453125 C 52.179688 -4.773438 49.988281 -3.1875 47.75 -1.6875 C 47.488281 -1.550781 47.21875 -1.378906 46.9375 -1.171875 C 46.800781 -1.078125 46.648438 -0.972656 46.484375 -0.859375 C 46.671875 -0.671875 46.832031 -0.5625 46.96875 -0.53125 C 47.101562 -0.507812 47.242188 -0.519531 47.390625 -0.5625 C 47.390625 -0.5625 47.40625 -0.5625 47.4375 -0.5625 C 47.875 -0.613281 48.296875 -0.671875 48.703125 -0.734375 L 48.75 -0.75 C 49.03125 -0.789062 49.300781 -0.847656 49.5625 -0.921875 C 50.84375 -1.117188 52.117188 -1.320312 53.390625 -1.53125 C 60.953125 -2.738281 68.5 -3.789062 76.03125 -4.6875 C 84.21875 -5.738281 92.40625 -6.554688 100.59375 -7.140625 C 103.207031 -7.347656 105.8125 -7.546875 108.40625 -7.734375 C 111.539062 -7.972656 114.679688 -8.207031 117.828125 -8.4375 C 119.648438 -8.539062 121.472656 -8.609375 123.296875 -8.640625 C 123.742188 -8.671875 124.203125 -8.691406 124.671875 -8.703125 C 125.015625 -8.703125 125.359375 -8.660156 125.703125 -8.578125 Z M 31.015625 -24.5 C 31.046875 -24.53125 31.082031 -24.585938 31.125 -24.671875 C 31.164062 -24.765625 31.195312 -24.832031 31.21875 -24.875 C 31.207031 -24.9375 31.1875 -24.972656 31.15625 -24.984375 C 31.132812 -25.003906 31.085938 -25.039062 31.015625 -25.09375 C 31.015625 -25.09375 31.003906 -25.101562 30.984375 -25.125 C 30.722656 -25.019531 30.492188 -24.835938 30.296875 -24.578125 C 30.253906 -24.503906 30.242188 -24.4375 30.265625 -24.375 C 30.285156 -24.320312 30.335938 -24.300781 30.421875 -24.3125 C 30.617188 -24.34375 30.816406 -24.40625 31.015625 -24.5 Z M 33.734375 4.296875 C 33.765625 4.253906 33.8125 4.226562 33.875 4.21875 C 33.96875 4.175781 34.054688 4.113281 34.140625 4.03125 C 34.234375 3.957031 34.296875 3.847656 34.328125 3.703125 C 34.253906 3.617188 34.203125 3.570312 34.171875 3.5625 C 34.128906 3.5625 34.097656 3.566406 34.078125 3.578125 C 27.972656 4.847656 21.882812 6.363281 15.8125 8.125 C 12.820312 8.988281 9.875 10.0625 6.96875 11.34375 C 6.90625 11.382812 6.832031 11.421875 6.75 11.453125 C 6.25 11.648438 5.804688 11.941406 5.421875 12.328125 C 5.328125 12.429688 5.269531 12.535156 5.25 12.640625 C 5.238281 12.742188 5.304688 12.828125 5.453125 12.890625 C 5.722656 12.953125 6.015625 12.992188 6.328125 13.015625 C 7.328125 13.035156 8.335938 12.960938 9.359375 12.796875 C 10.234375 12.660156 11.097656 12.476562 11.953125 12.25 C 19.367188 10.394531 26.628906 7.742188 33.734375 4.296875 Z M 33.734375 4.296875 "/></g></g><g transform="translate(121.320113, 226.66434)"><g><path d="M 11.15625 -10.875 C 11.457031 -10.769531 11.535156 -10.398438 11.390625 -9.765625 C 11.140625 -9.265625 10.851562 -8.789062 10.53125 -8.34375 C 10.207031 -7.90625 9.835938 -7.492188 9.421875 -7.109375 C 9.390625 -7.109375 9.378906 -7.097656 9.390625 -7.078125 C 9.128906 -6.828125 8.835938 -6.597656 8.515625 -6.390625 C 5.921875 -4.941406 4.421875 -5.296875 4.015625 -7.453125 C 3.046875 -6.296875 2.390625 -5.578125 2.046875 -5.296875 C 1.222656 -4.609375 0.269531 -4.210938 -0.8125 -4.109375 C -1.601562 -4.003906 -2.175781 -4.144531 -2.53125 -4.53125 C -2.882812 -4.925781 -2.957031 -5.523438 -2.75 -6.328125 C -2.425781 -7.578125 -1.863281 -8.734375 -1.0625 -9.796875 C -0.132812 -10.992188 0.953125 -12.007812 2.203125 -12.84375 C 2.859375 -13.320312 3.582031 -13.582031 4.375 -13.625 C 5.175781 -13.707031 5.722656 -13.34375 6.015625 -12.53125 C 6.117188 -12.28125 6.09375 -12.039062 5.9375 -11.8125 C 5.71875 -11.539062 5.429688 -11.4375 5.078125 -11.5 C 5.054688 -11.5 5.019531 -11.5 4.96875 -11.5 C 4.925781 -11.507812 4.890625 -11.523438 4.859375 -11.546875 C 4.460938 -11.960938 4.097656 -12.101562 3.765625 -11.96875 C 3.429688 -11.832031 3.09375 -11.613281 2.75 -11.3125 C 1.132812 -9.988281 0.0507812 -8.328125 -0.5 -6.328125 C -0.539062 -6.234375 -0.554688 -6.132812 -0.546875 -6.03125 C -0.546875 -5.9375 -0.503906 -5.863281 -0.421875 -5.8125 C -0.210938 -5.78125 0.0078125 -5.832031 0.25 -5.96875 C 0.488281 -6.113281 0.71875 -6.300781 0.9375 -6.53125 C 1.164062 -6.769531 1.359375 -6.960938 1.515625 -7.109375 C 1.535156 -7.148438 1.546875 -7.171875 1.546875 -7.171875 C 2.273438 -8.015625 2.984375 -8.875 3.671875 -9.75 C 3.960938 -10.1875 4.378906 -10.472656 4.921875 -10.609375 C 5.679688 -10.734375 6.046875 -10.445312 6.015625 -9.75 C 5.992188 -9.476562 5.960938 -9.207031 5.921875 -8.9375 C 5.796875 -7.789062 5.890625 -7.144531 6.203125 -7 C 6.515625 -6.851562 6.9375 -6.921875 7.46875 -7.203125 C 8.007812 -7.492188 8.523438 -7.953125 9.015625 -8.578125 C 9.503906 -9.210938 9.910156 -9.78125 10.234375 -10.28125 C 10.554688 -10.789062 10.863281 -10.988281 11.15625 -10.875 Z M 11.15625 -10.875 "/></g></g><g transform="translate(132.823657, 224.795891)"><g><path d="M 13.921875 -11.625 C 14.179688 -11.601562 14.328125 -11.535156 14.359375 -11.421875 C 14.390625 -11.316406 14.40625 -11.265625 14.40625 -11.265625 C 14.195312 -10.722656 13.953125 -10.222656 13.671875 -9.765625 C 12.992188 -8.722656 12.148438 -7.84375 11.140625 -7.125 C 10.671875 -6.726562 10.09375 -6.46875 9.40625 -6.34375 C 7.875 -6.070312 7.046875 -6.707031 6.921875 -8.25 C 6.929688 -8.59375 6.957031 -8.921875 7 -9.234375 C 7.03125 -9.398438 7.046875 -9.554688 7.046875 -9.703125 C 7.109375 -10.285156 7.101562 -10.601562 7.03125 -10.65625 C 6.957031 -10.71875 6.800781 -10.53125 6.5625 -10.09375 C 6.488281 -10.019531 6.421875 -9.9375 6.359375 -9.84375 C 5.992188 -9.207031 5.613281 -8.582031 5.21875 -7.96875 C 4.488281 -6.800781 3.601562 -5.78125 2.5625 -4.90625 C 1.945312 -4.382812 1.257812 -4.054688 0.5 -3.921875 C -0.738281 -3.648438 -1.53125 -4.101562 -1.875 -5.28125 C -2.007812 -5.769531 -2.066406 -6.253906 -2.046875 -6.734375 C -1.847656 -8.785156 -1.070312 -10.445312 0.28125 -11.71875 C 1.644531 -13 3.332031 -13.65625 5.34375 -13.6875 C 5.925781 -13.601562 6.3125 -13.8125 6.5 -14.3125 C 6.570312 -14.507812 6.644531 -14.707031 6.71875 -14.90625 C 7.101562 -15.914062 7.472656 -16.914062 7.828125 -17.90625 C 8.503906 -19.820312 9.179688 -21.75 9.859375 -23.6875 C 10.429688 -25.207031 10.988281 -26.742188 11.53125 -28.296875 C 11.707031 -28.773438 11.894531 -29.238281 12.09375 -29.6875 C 12.1875 -29.90625 12.328125 -30.050781 12.515625 -30.125 C 12.703125 -30.195312 12.898438 -30.253906 13.109375 -30.296875 C 13.148438 -30.296875 13.203125 -30.300781 13.265625 -30.3125 C 13.492188 -30.351562 13.679688 -30.320312 13.828125 -30.21875 C 13.984375 -30.125 14.046875 -29.976562 14.015625 -29.78125 C 13.941406 -29.269531 13.832031 -28.773438 13.6875 -28.296875 C 12.96875 -25.992188 12.316406 -23.675781 11.734375 -21.34375 C 11.148438 -19.007812 10.582031 -16.664062 10.03125 -14.3125 C 9.832031 -13.5 9.644531 -12.6875 9.46875 -11.875 C 9.226562 -10.914062 9.054688 -9.945312 8.953125 -8.96875 C 8.921875 -8.75 8.921875 -8.535156 8.953125 -8.328125 C 8.984375 -8.128906 9.113281 -7.976562 9.34375 -7.875 C 9.476562 -7.800781 9.609375 -7.800781 9.734375 -7.875 C 9.867188 -7.957031 10.015625 -8.046875 10.171875 -8.140625 C 10.191406 -8.179688 10.21875 -8.210938 10.25 -8.234375 C 11.25 -9.046875 12.132812 -9.976562 12.90625 -11.03125 C 13.03125 -11.195312 13.164062 -11.34375 13.3125 -11.46875 C 13.457031 -11.601562 13.660156 -11.65625 13.921875 -11.625 Z M 5.15625 -11.359375 C 5.257812 -11.585938 5.269531 -11.789062 5.1875 -11.96875 C 5.101562 -12.15625 4.953125 -12.28125 4.734375 -12.34375 C 4.265625 -12.507812 3.800781 -12.460938 3.34375 -12.203125 C 2.207031 -11.648438 1.316406 -10.800781 0.671875 -9.65625 C 0.0351562 -8.519531 -0.21875 -7.34375 -0.09375 -6.125 C -0.0507812 -6.082031 -0.03125 -6.046875 -0.03125 -6.015625 C -0.0078125 -5.910156 0.00390625 -5.804688 0.015625 -5.703125 C 0.210938 -5.160156 0.570312 -5.101562 1.09375 -5.53125 C 1.625 -5.96875 2.1875 -6.628906 2.78125 -7.515625 C 3.382812 -8.398438 3.914062 -9.234375 4.375 -10.015625 C 4.832031 -10.804688 5.09375 -11.253906 5.15625 -11.359375 Z M 5.15625 -11.359375 "/></g></g><g transform="translate(147.32888, 222.439899)"><g><path d="M 6.59375 -12 C 6.625 -11.1875 6.332031 -10.609375 5.71875 -10.265625 C 5.113281 -9.921875 4.851562 -10.203125 4.9375 -11.109375 C 5.019531 -12.023438 4.585938 -12.1875 3.640625 -11.59375 C 2.691406 -11 1.945312 -10.3125 1.40625 -9.53125 C 0.550781 -8.332031 -0.171875 -7.066406 -0.765625 -5.734375 C -0.835938 -5.609375 -0.890625 -5.507812 -0.921875 -5.4375 C -1.097656 -5.070312 -1.273438 -4.710938 -1.453125 -4.359375 C -1.566406 -4.128906 -1.722656 -3.972656 -1.921875 -3.890625 C -2.117188 -3.816406 -2.320312 -3.773438 -2.53125 -3.765625 C -2.738281 -3.765625 -2.90625 -3.816406 -3.03125 -3.921875 C -3.15625 -4.023438 -3.1875 -4.171875 -3.125 -4.359375 C -3.050781 -4.703125 -2.953125 -5.046875 -2.828125 -5.390625 C -2.109375 -7.492188 -1.367188 -9.601562 -0.609375 -11.71875 C -0.585938 -11.738281 -0.582031 -11.765625 -0.59375 -11.796875 C -0.476562 -12.128906 -0.34375 -12.441406 -0.1875 -12.734375 C 0.0078125 -13.015625 0.257812 -13.15625 0.5625 -13.15625 C 0.863281 -13.15625 1.09375 -13.015625 1.25 -12.734375 C 1.445312 -12.347656 1.597656 -12.132812 1.703125 -12.09375 C 1.804688 -12.050781 2.003906 -12.125 2.296875 -12.3125 C 2.960938 -12.6875 3.613281 -12.976562 4.25 -13.1875 C 4.894531 -13.394531 5.441406 -13.453125 5.890625 -13.359375 C 6.335938 -13.265625 6.570312 -12.8125 6.59375 -12 Z M 6.59375 -12 "/></g></g><g transform="translate(156.004253, 221.030812)"><g><path d="M -0.0625 -3.125 C -1.164062 -2.945312 -1.8125 -3.4375 -2 -4.59375 C -2.226562 -5.988281 -1.71875 -8.609375 -0.46875 -12.453125 C -0.414062 -12.617188 -0.300781 -12.71875 -0.125 -12.75 C 0.601562 -12.863281 1.015625 -12.625 1.109375 -12.03125 C 1.140625 -11.832031 1.117188 -11.570312 1.046875 -11.25 C 1.015625 -11.15625 0.648438 -9.53125 -0.046875 -6.375 C -0.148438 -5.851562 -0.179688 -5.476562 -0.140625 -5.25 C -0.0976562 -4.988281 0.0390625 -4.878906 0.28125 -4.921875 C 1.125 -5.054688 2.992188 -7.519531 5.890625 -12.3125 C 6.253906 -12.945312 6.660156 -13.300781 7.109375 -13.375 C 7.773438 -13.476562 8.148438 -13.289062 8.234375 -12.8125 C 8.265625 -12.625 8.175781 -11.882812 7.96875 -10.59375 C 7.675781 -8.851562 7.550781 -7.859375 7.59375 -7.609375 C 7.65625 -7.222656 7.8125 -7.050781 8.0625 -7.09375 C 8.707031 -7.195312 10.382812 -8.628906 13.09375 -11.390625 C 13.25 -11.578125 13.382812 -11.679688 13.5 -11.703125 C 13.789062 -11.742188 13.972656 -11.523438 14.046875 -11.046875 C 14.066406 -10.910156 14.046875 -10.796875 13.984375 -10.703125 C 12.578125 -9.046875 11.363281 -7.757812 10.34375 -6.84375 C 9.40625 -6.007812 8.53125 -5.523438 7.71875 -5.390625 L 7.484375 -5.359375 C 6.253906 -5.410156 5.507812 -6.238281 5.25 -7.84375 C 4.15625 -6.519531 3.242188 -5.441406 2.515625 -4.609375 C 1.785156 -3.785156 0.925781 -3.289062 -0.0625 -3.125 Z M -0.0625 -3.125 "/></g></g><g transform="translate(170.266565, 218.714274)"><g><path d="M 7.0625 -9.640625 C 7.375 -10.085938 7.65625 -10.351562 7.90625 -10.4375 C 8.15625 -10.519531 8.328125 -10.503906 8.421875 -10.390625 C 8.523438 -10.285156 8.503906 -10.109375 8.359375 -9.859375 C 7.535156 -8.460938 6.566406 -7.21875 5.453125 -6.125 C 4.335938 -5.03125 3.125 -4.300781 1.8125 -3.9375 C 0.5 -3.582031 -0.425781 -4.179688 -0.96875 -5.734375 C -1.4375 -7.285156 -1 -10.671875 0.34375 -15.890625 C 1.6875 -21.109375 2.71875 -25.367188 3.4375 -28.671875 C 3.5 -28.972656 3.617188 -29.242188 3.796875 -29.484375 C 4.023438 -29.804688 4.34375 -29.921875 4.75 -29.828125 C 4.894531 -29.785156 5.039062 -29.710938 5.1875 -29.609375 C 5.332031 -29.515625 5.410156 -29.296875 5.421875 -28.953125 C 2.054688 -15.085938 0.550781 -7.601562 0.90625 -6.5 C 1.257812 -5.394531 2.035156 -5.234375 3.234375 -6.015625 C 4.429688 -6.804688 5.332031 -7.554688 5.9375 -8.265625 C 6.539062 -8.972656 6.914062 -9.429688 7.0625 -9.640625 Z M 7.0625 -9.640625 "/></g></g><g transform="translate(178.924587, 217.308006)"><g/></g><g transform="translate(192.04175, 215.177468)"><g><path d="M 91.203125 -31.09375 C 88.953125 -30.976562 86.707031 -30.738281 84.46875 -30.375 C 83.476562 -30.25 82.46875 -30.117188 81.4375 -29.984375 C 72.113281 -28.867188 62.8125 -27.457031 53.53125 -25.75 C 53.0625 -25.675781 52.679688 -25.617188 52.390625 -25.578125 C 51.867188 -25.523438 51.492188 -25.457031 51.265625 -25.375 C 51.046875 -25.289062 50.882812 -25.132812 50.78125 -24.90625 C 50.675781 -24.675781 50.570312 -24.296875 50.46875 -23.765625 C 50.394531 -23.472656 50.300781 -23.109375 50.1875 -22.671875 C 49.1875 -19.023438 48.320312 -15.359375 47.59375 -11.671875 C 47.113281 -9.273438 46.832031 -6.859375 46.75 -4.421875 C 46.695312 -3.648438 46.753906 -2.914062 46.921875 -2.21875 C 47.097656 -1.519531 47.519531 -0.941406 48.1875 -0.484375 C 48.269531 -0.441406 48.304688 -0.375 48.296875 -0.28125 C 48.296875 -0.1875 48.257812 -0.09375 48.1875 0 C 48.113281 0.0820312 48.035156 0.140625 47.953125 0.171875 C 46.617188 0.597656 45.710938 0.238281 45.234375 -0.90625 C 44.960938 -1.539062 44.820312 -2.226562 44.8125 -2.96875 C 44.800781 -3.007812 44.796875 -3.039062 44.796875 -3.0625 C 44.703125 -4.300781 44.71875 -5.546875 44.84375 -6.796875 C 44.976562 -8.054688 45.15625 -9.316406 45.375 -10.578125 C 46.09375 -14.398438 46.953125 -18.195312 47.953125 -21.96875 C 48.015625 -22.125 48.054688 -22.285156 48.078125 -22.453125 C 48.128906 -22.640625 48.1875 -22.832031 48.25 -23.03125 C 48.320312 -23.289062 48.390625 -23.5625 48.453125 -23.84375 C 48.523438 -24.125 48.523438 -24.394531 48.453125 -24.65625 C 48.304688 -24.738281 48.171875 -24.78125 48.046875 -24.78125 C 47.921875 -24.789062 47.796875 -24.769531 47.671875 -24.71875 C 47.648438 -24.71875 47.617188 -24.710938 47.578125 -24.703125 C 46.484375 -24.523438 45.394531 -24.335938 44.3125 -24.140625 C 44 -24.097656 43.675781 -24.050781 43.34375 -24 C 42.945312 -23.90625 42.628906 -23.71875 42.390625 -23.4375 C 42.148438 -23.164062 41.929688 -22.84375 41.734375 -22.46875 C 41.460938 -21.988281 41.191406 -21.503906 40.921875 -21.015625 C 39.804688 -18.972656 38.664062 -16.941406 37.5 -14.921875 C 35.78125 -11.984375 33.953125 -9.117188 32.015625 -6.328125 C 30.078125 -3.546875 27.972656 -0.894531 25.703125 1.625 C 22.847656 4.875 19.742188 7.820312 16.390625 10.46875 C 11.234375 14.414062 5.550781 16.816406 -0.65625 17.671875 C -6.507812 18.492188 -12.019531 17.773438 -17.1875 15.515625 C -18.644531 14.878906 -19.984375 14.046875 -21.203125 13.015625 C -22.015625 12.285156 -22.703125 11.460938 -23.265625 10.546875 C -23.828125 9.640625 -24.195312 8.613281 -24.375 7.46875 C -24.539062 6.082031 -24.4375 4.753906 -24.0625 3.484375 C -23.6875 2.210938 -23.066406 1.019531 -22.203125 -0.09375 C -21.023438 -1.675781 -19.664062 -3.070312 -18.125 -4.28125 C -16.65625 -5.5 -15.109375 -6.601562 -13.484375 -7.59375 C -11.867188 -8.582031 -10.226562 -9.492188 -8.5625 -10.328125 C -5.875 -11.710938 -3.128906 -12.953125 -0.328125 -14.046875 C 2.472656 -15.148438 5.300781 -16.160156 8.15625 -17.078125 C 14.945312 -19.160156 21.804688 -20.925781 28.734375 -22.375 C 32.253906 -23.164062 35.785156 -23.847656 39.328125 -24.421875 C 40.296875 -24.554688 40.976562 -25.09375 41.375 -26.03125 C 42.101562 -27.5 42.832031 -28.972656 43.5625 -30.453125 C 44.695312 -32.722656 45.8125 -35.03125 46.90625 -37.375 C 51.90625 -48.320312 56.613281 -59.390625 61.03125 -70.578125 C 61.382812 -71.523438 61.734375 -72.488281 62.078125 -73.46875 C 62.234375 -73.957031 62.40625 -74.453125 62.59375 -74.953125 C 62.800781 -75.585938 63.226562 -75.992188 63.875 -76.171875 C 64.226562 -76.234375 64.503906 -76.175781 64.703125 -76 C 64.910156 -75.832031 64.972656 -75.566406 64.890625 -75.203125 C 64.804688 -74.898438 64.703125 -74.609375 64.578125 -74.328125 C 63.898438 -72.410156 63.320312 -70.488281 62.84375 -68.5625 C 62.65625 -67.882812 62.46875 -67.210938 62.28125 -66.546875 C 60.5625 -60.328125 58.820312 -54.09375 57.0625 -47.84375 C 55.738281 -43.03125 54.390625 -38.207031 53.015625 -33.375 C 52.640625 -31.9375 52.265625 -30.507812 51.890625 -29.09375 C 51.804688 -28.789062 51.722656 -28.503906 51.640625 -28.234375 C 51.617188 -28.179688 51.601562 -28.117188 51.59375 -28.046875 C 51.539062 -27.835938 51.5 -27.640625 51.46875 -27.453125 C 51.445312 -27.273438 51.492188 -27.101562 51.609375 -26.9375 C 51.804688 -26.84375 52.019531 -26.804688 52.25 -26.828125 C 52.476562 -26.859375 52.691406 -26.890625 52.890625 -26.921875 C 53.054688 -26.972656 53.203125 -27.003906 53.328125 -27.015625 C 54.296875 -27.160156 55.257812 -27.320312 56.21875 -27.5 C 57.539062 -27.707031 58.867188 -27.910156 60.203125 -28.109375 C 67.441406 -29.148438 74.691406 -30.160156 81.953125 -31.140625 C 84.328125 -31.484375 86.695312 -31.773438 89.0625 -32.015625 C 89.28125 -32.023438 89.5 -32.046875 89.71875 -32.078125 C 89.851562 -32.097656 89.992188 -32.125 90.140625 -32.15625 C 90.453125 -32.207031 90.75 -32.226562 91.03125 -32.21875 C 91.320312 -32.207031 91.613281 -32.144531 91.90625 -32.03125 C 91.945312 -32.007812 91.988281 -31.960938 92.03125 -31.890625 C 92.070312 -31.816406 92.078125 -31.753906 92.046875 -31.703125 C 92.066406 -31.617188 92.050781 -31.539062 92 -31.46875 C 91.945312 -31.394531 91.894531 -31.347656 91.84375 -31.328125 C 91.644531 -31.203125 91.429688 -31.125 91.203125 -31.09375 Z M 39.515625 -22.5 C 39.578125 -22.675781 39.566406 -22.820312 39.484375 -22.9375 C 39.398438 -23.050781 39.28125 -23.09375 39.125 -23.0625 C 38.875 -23.050781 38.632812 -23.015625 38.40625 -22.953125 C 38.269531 -22.921875 38.140625 -22.898438 38.015625 -22.890625 C 29.296875 -21.359375 20.648438 -19.335938 12.078125 -16.828125 C 8.804688 -15.878906 5.566406 -14.804688 2.359375 -13.609375 C -0.847656 -12.421875 -3.988281 -11.0625 -7.0625 -9.53125 C -8.71875 -8.71875 -10.332031 -7.828125 -11.90625 -6.859375 C -13.476562 -5.898438 -14.992188 -4.816406 -16.453125 -3.609375 C -17.984375 -2.398438 -19.320312 -1.007812 -20.46875 0.5625 C -21.8125 2.46875 -22.429688 4.375 -22.328125 6.28125 C -22.234375 8.1875 -21.441406 9.910156 -19.953125 11.453125 C -18.867188 12.523438 -17.632812 13.394531 -16.25 14.0625 C -11.21875 16.53125 -5.582031 17.285156 0.65625 16.328125 C 2.25 16.066406 4.050781 15.5625 6.0625 14.8125 C 8.039062 14.050781 9.921875 13.097656 11.703125 11.953125 C 13.492188 10.816406 15.203125 9.539062 16.828125 8.125 C 20.835938 4.664062 24.441406 0.800781 27.640625 -3.46875 C 29.867188 -6.351562 31.925781 -9.34375 33.8125 -12.4375 C 35.695312 -15.539062 37.5 -18.679688 39.21875 -21.859375 C 39.320312 -22.085938 39.421875 -22.300781 39.515625 -22.5 Z M 49.5625 -27.828125 C 50.613281 -31.910156 51.71875 -35.988281 52.875 -40.0625 C 52.925781 -40.289062 53.097656 -40.9375 53.390625 -42 C 53.691406 -43.070312 54.035156 -44.3125 54.421875 -45.71875 C 54.804688 -47.125 55.148438 -48.445312 55.453125 -49.6875 C 55.753906 -50.9375 55.957031 -51.867188 56.0625 -52.484375 C 56.175781 -53.109375 56.109375 -53.15625 55.859375 -52.625 C 55.785156 -52.519531 55.742188 -52.410156 55.734375 -52.296875 C 55.515625 -51.835938 55.3125 -51.390625 55.125 -50.953125 C 53.539062 -47.316406 51.941406 -43.6875 50.328125 -40.0625 C 48.722656 -36.445312 47.035156 -32.863281 45.265625 -29.3125 C 45.085938 -28.96875 44.914062 -28.613281 44.75 -28.25 C 44.40625 -27.582031 44.070312 -26.898438 43.75 -26.203125 C 43.613281 -25.921875 43.597656 -25.703125 43.703125 -25.546875 C 43.804688 -25.398438 43.992188 -25.347656 44.265625 -25.390625 C 44.734375 -25.460938 45.1875 -25.546875 45.625 -25.640625 C 46.320312 -25.816406 47.03125 -25.960938 47.75 -26.078125 C 48.300781 -26.140625 48.703125 -26.320312 48.953125 -26.625 C 49.210938 -26.925781 49.414062 -27.328125 49.5625 -27.828125 Z M 49.5625 -27.828125 "/></g></g><g transform="translate(247.043612, 206.24386)"><g><path d="M 16.734375 -11.65625 C 17.085938 -11.957031 17.390625 -12.066406 17.640625 -11.984375 C 17.898438 -11.898438 17.875 -11.523438 17.5625 -10.859375 C 17.15625 -10.097656 16.359375 -9.222656 15.171875 -8.234375 C 13.992188 -7.242188 12.894531 -6.710938 11.875 -6.640625 C 10.851562 -6.578125 10.4375 -7.273438 10.625 -8.734375 C 10.820312 -10.203125 10.925781 -11.019531 10.9375 -11.1875 C 10.945312 -11.363281 10.898438 -11.453125 10.796875 -11.453125 C 10.691406 -11.460938 10.476562 -11.3125 10.15625 -11 C 9.238281 -10.113281 8.347656 -9.191406 7.484375 -8.234375 C 7.097656 -7.859375 6.726562 -7.453125 6.375 -7.015625 C 6.15625 -6.742188 5.929688 -6.472656 5.703125 -6.203125 C 5.703125 -6.203125 5.691406 -6.1875 5.671875 -6.15625 C 5.421875 -5.8125 5.078125 -5.546875 4.640625 -5.359375 C 4.460938 -5.273438 4.257812 -5.222656 4.03125 -5.203125 C 3.8125 -5.179688 3.609375 -5.238281 3.421875 -5.375 C 3.234375 -5.519531 3.144531 -5.6875 3.15625 -5.875 C 3.175781 -6.070312 3.273438 -6.378906 3.453125 -6.796875 C 3.640625 -7.222656 3.835938 -7.6875 4.046875 -8.1875 C 4.265625 -8.695312 4.382812 -9.003906 4.40625 -9.109375 C 4.425781 -9.222656 4.394531 -9.328125 4.3125 -9.421875 C 4.207031 -9.515625 4.109375 -9.535156 4.015625 -9.484375 C 3.929688 -9.429688 3.601562 -9.125 3.03125 -8.5625 C 2.46875 -8 1.707031 -7.21875 0.75 -6.21875 C 0.300781 -5.75 -0.125 -5.269531 -0.53125 -4.78125 C -0.644531 -4.632812 -0.769531 -4.5 -0.90625 -4.375 C -1.207031 -4.019531 -1.578125 -3.796875 -2.015625 -3.703125 C -2.304688 -3.628906 -2.546875 -3.660156 -2.734375 -3.796875 C -2.921875 -3.929688 -2.976562 -4.148438 -2.90625 -4.453125 C -2.875 -4.671875 -2.820312 -4.867188 -2.75 -5.046875 C -2.695312 -5.140625 -2.671875 -5.226562 -2.671875 -5.3125 C -2.054688 -7.3125 -1.453125 -9.320312 -0.859375 -11.34375 C -0.847656 -11.382812 -0.835938 -11.445312 -0.828125 -11.53125 C -0.742188 -11.738281 -0.664062 -11.945312 -0.59375 -12.15625 C -0.363281 -12.5 -0.0507812 -12.648438 0.34375 -12.609375 C 0.800781 -12.554688 1.007812 -12.328125 0.96875 -11.921875 C 0.851562 -11.304688 0.742188 -10.703125 0.640625 -10.109375 C 0.578125 -9.835938 0.515625 -9.566406 0.453125 -9.296875 C 0.359375 -8.816406 0.347656 -8.515625 0.421875 -8.390625 C 0.503906 -8.273438 0.78125 -8.410156 1.25 -8.796875 C 1.550781 -9.097656 1.851562 -9.382812 2.15625 -9.65625 C 2.507812 -10 2.863281 -10.320312 3.21875 -10.625 C 3.738281 -11.070312 4.285156 -11.476562 4.859375 -11.84375 C 5.140625 -12.007812 5.429688 -12.148438 5.734375 -12.265625 C 6.046875 -12.378906 6.359375 -12.359375 6.671875 -12.203125 C 6.910156 -12.054688 7.03125 -11.867188 7.03125 -11.640625 C 7.039062 -11.421875 7.015625 -11.203125 6.953125 -10.984375 C 6.859375 -10.578125 6.832031 -10.328125 6.875 -10.234375 C 6.914062 -10.140625 7.007812 -10.132812 7.15625 -10.21875 C 7.300781 -10.3125 7.546875 -10.503906 7.890625 -10.796875 C 8.234375 -11.085938 8.601562 -11.40625 9 -11.75 C 9.488281 -12.195312 10.015625 -12.640625 10.578125 -13.078125 C 11.035156 -13.484375 11.546875 -13.769531 12.109375 -13.9375 C 12.898438 -14.125 13.28125 -13.851562 13.25 -13.125 C 13.21875 -12.40625 13.070312 -11.523438 12.8125 -10.484375 C 12.550781 -9.453125 12.601562 -8.851562 12.96875 -8.6875 C 13.34375 -8.53125 14.023438 -8.953125 15.015625 -9.953125 C 16.015625 -10.953125 16.585938 -11.519531 16.734375 -11.65625 Z M 16.734375 -11.65625 "/></g></g><g transform="translate(265.4007, 203.262234)"><g><path d="M 5.6875 -8.4375 C 5.195312 -7.601562 4.578125 -6.8125 3.828125 -6.0625 C 3.085938 -5.3125 2.203125 -4.742188 1.171875 -4.359375 C 0.148438 -3.972656 -0.679688 -3.914062 -1.328125 -4.1875 C -1.984375 -4.457031 -2.234375 -5.257812 -2.078125 -6.59375 C -1.835938 -7.988281 -1.40625 -9.347656 -0.78125 -10.671875 C -0.632812 -10.960938 -0.398438 -11.1875 -0.078125 -11.34375 C 0.160156 -11.4375 0.390625 -11.425781 0.609375 -11.3125 C 0.828125 -11.195312 0.929688 -11.023438 0.921875 -10.796875 C 0.816406 -10.347656 0.691406 -9.898438 0.546875 -9.453125 C 0.410156 -9.003906 0.320312 -8.710938 0.28125 -8.578125 C -0.0195312 -7.765625 -0.179688 -6.941406 -0.203125 -6.109375 C -0.128906 -5.648438 0.488281 -5.722656 1.65625 -6.328125 C 2.820312 -6.929688 3.90625 -7.867188 4.90625 -9.140625 C 5.90625 -10.410156 6.410156 -10.816406 6.421875 -10.359375 C 6.429688 -9.910156 6.1875 -9.269531 5.6875 -8.4375 Z M 1.75 -13.75 C 1.6875 -13.6875 1.566406 -13.609375 1.390625 -13.515625 C 1.222656 -13.429688 1.039062 -13.351562 0.84375 -13.28125 C 0.65625 -13.21875 0.492188 -13.222656 0.359375 -13.296875 C 0.234375 -13.378906 0.203125 -13.566406 0.265625 -13.859375 C 0.378906 -14.367188 0.503906 -14.820312 0.640625 -15.21875 C 0.773438 -15.625 0.972656 -16.078125 1.234375 -16.578125 C 1.410156 -16.796875 1.617188 -16.929688 1.859375 -16.984375 C 2.097656 -17.035156 2.3125 -17.003906 2.5 -16.890625 C 2.6875 -16.785156 2.765625 -16.601562 2.734375 -16.34375 C 2.617188 -15.375 2.289062 -14.507812 1.75 -13.75 Z M 1.75 -13.75 "/></g></g><g transform="translate(272.167491, 202.163146)"><g><path d="M 12.328125 -10.890625 C 12.554688 -10.691406 12.394531 -10.234375 11.84375 -9.515625 C 11.300781 -8.804688 10.695312 -8.179688 10.03125 -7.640625 C 9.375 -7.109375 8.597656 -6.550781 7.703125 -5.96875 C 7.117188 -5.582031 6.460938 -5.378906 5.734375 -5.359375 C 5.003906 -5.335938 4.570312 -5.710938 4.4375 -6.484375 C 4.3125 -7.265625 4.363281 -8.0625 4.59375 -8.875 C 4.820312 -9.726562 4.832031 -10.144531 4.625 -10.125 C 4.425781 -10.113281 4.039062 -9.859375 3.46875 -9.359375 C 1.988281 -8.003906 0.65625 -6.515625 -0.53125 -4.890625 C -0.84375 -4.367188 -1.289062 -4.03125 -1.875 -3.875 C -2.175781 -3.832031 -2.425781 -3.890625 -2.625 -4.046875 C -2.820312 -4.210938 -2.875 -4.414062 -2.78125 -4.65625 C -2.070312 -6.695312 -1.347656 -8.726562 -0.609375 -10.75 C -0.429688 -11.164062 -0.117188 -11.457031 0.328125 -11.625 C 0.515625 -11.6875 0.703125 -11.65625 0.890625 -11.53125 C 1.085938 -11.40625 1.203125 -11.242188 1.234375 -11.046875 C 1.242188 -10.847656 1.207031 -10.613281 1.125 -10.34375 C 1.082031 -10.1875 1.046875 -10.035156 1.015625 -9.890625 C 0.992188 -9.742188 1 -9.625 1.03125 -9.53125 C 1.0625 -9.4375 1.140625 -9.414062 1.265625 -9.46875 C 1.421875 -9.59375 1.570312 -9.722656 1.71875 -9.859375 C 2.125 -10.191406 2.507812 -10.507812 2.875 -10.8125 C 3.195312 -11.0625 3.539062 -11.300781 3.90625 -11.53125 C 4.28125 -11.757812 4.675781 -11.9375 5.09375 -12.0625 C 5.78125 -12.21875 6.296875 -12.140625 6.640625 -11.828125 C 6.992188 -11.523438 7.113281 -11.035156 7 -10.359375 C 6.851562 -9.742188 6.703125 -9.128906 6.546875 -8.515625 C 6.316406 -7.941406 6.328125 -7.53125 6.578125 -7.28125 C 6.828125 -7.039062 7.738281 -7.519531 9.3125 -8.71875 L 10.5 -9.671875 C 11.601562 -10.660156 12.210938 -11.066406 12.328125 -10.890625 Z M 12.328125 -10.890625 "/></g></g></g><g clip-path="url(#8c887bedb5)"><g clip-path="url(#ccc5b9d2e8)"><path fill="#000000" d="M 287.066406 188.25 L 291.136719 188.25 L 291.136719 192.320312 L 287.066406 192.320312 Z M 287.066406 188.25 " fill-opacity="1" fill-rule="nonzero"/></g></g></svg>